# xmcd
#
# Track frame offsets:
#	150
#	17006
#	39657
#	50787
#	78287
#
# Disc length: 1184 seconds
#
# Revision: 0
# Processed by: cddbd v1.5.1PL0 Copyright (c) Steve Scherf et al.
# Submitted via: dBpowerAMP V4.0
#
DISCID=37049e05
DTITLE=Teneia Sanders - 2004 Demo
DYEAR=2004
DGENRE=R&B
TTITLE0=Silence
TTITLE1=Chillin Out
TTITLE2=Summertime
TTITLE3=Skit Scat
TTITLE4=Carpe Diem
EXTD=Teneia Sanders is an Independent artist from Jeffersonville Indiana
EXTT0=
EXTT1=
EXTT2=
EXTT3=
EXTT4=
PLAYORDER=
